mtllib prototype.mtl
o prototype_house
# back and side walls
usemtl wall
v -0.5 0.0 -0.5
v 0.5 0.0 -0.5
v 0.5 0.62 -0.5
v -0.5 0.62 -0.5
v -0.5 0.0 0.5
v -0.5 0.62 0.5
v 0.5 0.0 0.5
v 0.5 0.62 0.5
f 1 4 3 2
f 1 5 6 4
f 2 3 8 7
# front wall split around centered doorway
v -0.5 0.0 0.5
v -0.17 0.0 0.5
v -0.17 0.62 0.5
v -0.5 0.62 0.5
v 0.17 0.0 0.5
v 0.5 0.0 0.5
v 0.5 0.62 0.5
v 0.17 0.62 0.5
v -0.17 0.36 0.5
v 0.17 0.36 0.5
v 0.17 0.62 0.5
v -0.17 0.62 0.5
f 9 10 11 12
f 13 14 15 16
f 17 18 19 20
# dark interior behind opening
usemtl doorway
v -0.17 0.0 0.47
v 0.17 0.0 0.47
v 0.17 0.36 0.47
v -0.17 0.36 0.47
f 21 22 23 24
# pitched roof
usemtl roof
v -0.58 0.60 -0.58
v 0.58 0.60 -0.58
v 0.58 0.60 0.58
v -0.58 0.60 0.58
v 0.0 0.92 -0.58
v 0.0 0.92 0.58
f 25 29 26
f 25 28 30 29
f 26 29 30 27
f 28 27 30
f 25 28 27 26
