mtllib prototype.mtl
o prototype_pawn
usemtl character
# left leg
v -0.42 0.00 -0.24
v -0.08 0.00 -0.24
v -0.08 0.72 -0.24
v -0.42 0.72 -0.24
v -0.42 0.00 0.24
v -0.08 0.00 0.24
v -0.08 0.72 0.24
v -0.42 0.72 0.24
f 4 3 2 1
f 6 7 8 5
f 2 6 5 1
f 8 7 3 4
f 3 7 6 2
f 5 8 4 1
# right leg
v 0.08 0.00 -0.24
v 0.42 0.00 -0.24
v 0.42 0.72 -0.24
v 0.08 0.72 -0.24
v 0.08 0.00 0.24
v 0.42 0.00 0.24
v 0.42 0.72 0.24
v 0.08 0.72 0.24
f 12 11 10 9
f 14 15 16 13
f 10 14 13 9
f 16 15 11 12
f 11 15 14 10
f 13 16 12 9
# torso
v -0.62 0.65 -0.32
v 0.62 0.65 -0.32
v 0.50 1.70 -0.30
v -0.50 1.70 -0.30
v -0.62 0.65 0.32
v 0.62 0.65 0.32
v 0.50 1.70 0.30
v -0.50 1.70 0.30
f 20 19 18 17
f 22 23 24 21
f 18 22 21 17
f 24 23 19 20
f 19 23 22 18
f 21 24 20 17
# arms
v -0.84 0.72 -0.22
v -0.58 0.72 -0.22
v -0.50 1.55 -0.22
v -0.76 1.55 -0.22
v -0.84 0.72 0.22
v -0.58 0.72 0.22
v -0.50 1.55 0.22
v -0.76 1.55 0.22
f 28 27 26 25
f 30 31 32 29
f 26 30 29 25
f 32 31 27 28
f 27 31 30 26
f 29 32 28 25
v 0.58 0.72 -0.22
v 0.84 0.72 -0.22
v 0.76 1.55 -0.22
v 0.50 1.55 -0.22
v 0.58 0.72 0.22
v 0.84 0.72 0.22
v 0.76 1.55 0.22
v 0.50 1.55 0.22
f 36 35 34 33
f 38 39 40 37
f 34 38 37 33
f 40 39 35 36
f 35 39 38 34
f 37 40 36 33
# faceted head
v 0.00 2.48 0.00
v -0.55 2.18 -0.38
v 0.55 2.18 -0.38
v 0.55 2.18 0.38
v -0.55 2.18 0.38
v -0.55 1.65 -0.38
v 0.55 1.65 -0.38
v 0.55 1.65 0.38
v -0.55 1.65 0.38
f 43 42 41
f 44 43 41
f 45 44 41
f 42 45 41
f 43 47 46 42
f 44 48 47 43
f 45 49 48 44
f 42 46 49 45
f 47 48 49 46
